# xmcd
#
# Track frame offsets: 
#        150
#        18240
#        34593
#        51297
#        64344
#        79851
#        92006
#        108238
#        122937
#        137199
#        154911
#
# Disc length: 2209 seconds
#
# Revision: 8
# Processed by: cddbd v1.5.2PL0 Copyright (c) Steve Scherf et al.
# Submitted via: ExactAudioCopy v0.95a4
#
DISCID=91089f0b
DTITLE=Airbourne - Runnin' Wild
DYEAR=2007
DGENRE=Hard Rock
TTITLE0=Stand Up For Rock 'N' Roll
TTITLE1=Runnin' Wild
TTITLE2=Too Much, Too Young, Too Fast
TTITLE3=Diamond In The Rough
TTITLE4=Fat City
TTITLE5=Blackjack
TTITLE6=What's Eatin' You
TTITLE7=Girls In Black
TTITLE8=Cheap Wine and Cheaper Women
TTITLE9=Heartbreaker
TTITLE10=Hellfire
EXTD=Year: 2007\n\n\n\n\n\n                                           
EXTD=      www.airbournerock.com
EXTT0=
EXTT1=
EXTT2=
EXTT3=
EXTT4=
EXTT5=
EXTT6=
EXTT7=
EXTT8=
EXTT9=
EXTT10=
PLAYORDER=
